<svg xmlns="http://www.w3.org/2000/svg" viewBox="0 0 395 70"><defs><style>.cls-1{fill:none;}.cls-2{fill:#ccc;}.cls-3{fill:#fff;}.cls-4{fill:#262626;}.cls-5{fill:#e40b20;}.cls-6{fill:#b2b2b2;}</style></defs><title>ttl_evolution_2</title><g id="レイヤー_2" data-name="レイヤー 2"><g id="レイヤー_1-2" data-name="レイヤー 1"><path class="cls-1" d="M49.8,37.5a11.76,11.76,0,0,0,0-5,13.06,13.06,0,0,0-4.55-7.28,11,11,0,0,0-1-.78,14.69,14.69,0,0,0-1.58-.95,16.28,16.28,0,0,0-4.59-1.64c-.45-.09-.92-.17-1.39-.22.41.05.82.13,1.22.22a14.24,14.24,0,0,1,5.41,2.59,10.92,10.92,0,0,1,.9.78,13.49,13.49,0,0,1,4,7.28,13.76,13.76,0,0,1,0,5,13.53,13.53,0,0,1-10.3,10.65c-.4.09-.81.17-1.22.22.47,0,.94-.13,1.39-.22C44,47,48.67,42.78,49.8,37.5Z"/><polygon class="cls-2" points="358.04 66.5 36.67 66.5 36.67 70 358.04 70 358.04 66.5 358.04 66.5"/><path class="cls-3" d="M36.67,3.5V21.62c.47.05.94.13,1.39.22a16.28,16.28,0,0,1,4.59,1.64,14.69,14.69,0,0,1,1.58.95,11,11,0,0,1,1,.78,13.06,13.06,0,0,1,4.55,7.28,11.76,11.76,0,0,1,0,5C48.67,42.78,44,47,38.06,48.15c-.45.09-.92.17-1.39.22V66.5H358V47.16l.43,0a13.08,13.08,0,0,0,0-26.16c-.15,0-.29,0-.43,0V3.5H36.67Z"/><path class="cls-3" d="M361.54,3.53V18a16.39,16.39,0,0,1,0,32.2V66.46a31.5,31.5,0,0,0,0-62.93Z"/><polygon class="cls-2" points="358.04 3.5 358.04 3.5 358.04 0 36.67 0 36.67 3.5 358.04 3.5"/><path class="cls-3" d="M44.92,35a10,10,0,1,0-10,10A10,10,0,0,0,44.92,35Zm-10,6.46A6.47,6.47,0,1,1,41.39,35,6.47,6.47,0,0,1,34.92,41.46Z"/><path class="cls-4" d="M36.67,48.37c.41,0,.82-.13,1.22-.22A13.53,13.53,0,0,0,48.19,37.5a13.76,13.76,0,0,0,0-5,13.49,13.49,0,0,0-4-7.28,10.92,10.92,0,0,0-.9-.78,14.24,14.24,0,0,0-5.41-2.59c-.4-.09-.81-.17-1.22-.22V0H35L33.17,0A34.92,34.92,0,0,0,23,2.12c-1.07.39-2.12.84-3.14,1.33A35.14,35.14,0,0,0,6,15.43c-.62.93-1.21,1.89-1.75,2.88a35,35,0,0,0,0,33.37c.54,1,1.13,2,1.75,2.88a35.14,35.14,0,0,0,13.85,12A32.11,32.11,0,0,0,23,67.87,34.92,34.92,0,0,0,33.17,70L35,70h1.67V48.37Zm-3.5,18.07a31.5,31.5,0,0,1,0-62.89V21.62a13.49,13.49,0,0,0,0,26.75ZM34.92,45a10,10,0,1,1,10-10A10,10,0,0,1,34.92,45Z"/><path class="cls-5" d="M21.42,35A13.51,13.51,0,0,1,33.17,21.62V3.55a31.5,31.5,0,0,0,0,62.89V48.37A13.51,13.51,0,0,1,21.42,35Z"/><circle class="cls-6" cx="34.92" cy="34.99" r="6.47" transform="translate(-5.15 6.05) rotate(-9.22)"/><path class="cls-4" d="M393.42,24.59a34.79,34.79,0,0,0-2.65-6.28c-.54-1-1.12-1.95-1.75-2.88A35.17,35.17,0,0,0,378.15,5.06c-.94-.57-1.91-1.08-2.9-1.56A35,35,0,0,0,361.54,0L360,0h-2V21.05c.14,0,.28,0,.43,0a13.08,13.08,0,0,1,0,26.16l-.43,0V70h2l1.54,0a35.07,35.07,0,0,0,13.69-3.46c1-.48,2-1,2.92-1.57A35.17,35.17,0,0,0,389,54.56c.63-.93,1.21-1.89,1.75-2.88a35,35,0,0,0,2.65-27.09ZM361.54,66.46V50.2a16.39,16.39,0,0,0,0-32.2V3.53a31.5,31.5,0,0,1,0,62.93Z"/><path d="M148.48,29.87h10.3V41.21c-.12,3.39,1.92,5.07,6.15,5h19.69v5.91H165.13c-4.59,0-6.7-.8-9.18-3.63-1.52,2.63-3.87,3.91-7.47,4.19V45.8c2.84-.64,3.84-1.88,3.76-4.59V35.7h-3.76Zm.92-12.42a89,89,0,0,1,9.38,2v6.23c-3.47-1-5.23-1.4-9.38-2.28Zm21-.6c-.56,1.36-.64,1.56-1.23,2.76h2.87l1.24-2.76h6.31l-1.24,2.76h5.07v4.91h-6.59v1.72h5.55v4.43h-5.55v2h5.55v4.56h-5.55v2.31h6.79v5h-22.2V30.31l-1.8,1.28V24a18.35,18.35,0,0,0,4.43-7.11Zm.56,9.39V24.52h-3.71v1.72Zm0,6.46v-2h-3.71v2Zm0,6.87V37.26h-3.71v2.31Z"/><path d="M210,30a28.16,28.16,0,0,0,7.75-12.9H225a104.53,104.53,0,0,1-4.48,9.9V53.15h-6.82V35.82A20,20,0,0,1,210,39.05ZM233.5,17.13V28.07a94.09,94.09,0,0,0,11.9-3.91v7.19a115.25,115.25,0,0,1-11.9,3.55V46h6.63a9.47,9.47,0,0,0,6.39-1.92v7a6.51,6.51,0,0,1-2.84,1.24,59.07,59.07,0,0,1-8.54.44c-4.43,0-6.15-.4-7.31-1.64-.84-.88-1.24-2.24-1.24-4.27V17.13Z"/></g></g></svg>